<svg xmlns="http://www.w3.org/2000/svg" width="1900" height="560" viewBox="0 0 1900 560" fill="none">
  <path d="M344 77H680L725 122V437L680 482H344L298 437V122L344 77Z" fill="#243946"/>

  <rect x="350" y="141" width="324" height="65" rx="2" fill="#20B87F"/>

  <path d="M350 247H462L514 312H350V247Z" fill="#4E82EA"/>
  <path d="M510 247H674V312H562L510 247Z" fill="#20B87F"/>

  <rect x="350" y="353" width="324" height="65" rx="2" fill="#4E82EA"/>

  <g fill="#29414F" transform="translate(818 408) scale(0.1795 -0.1795)">
    <path d="M140 1440H722Q782 1440 833 1432Q951 1414 1032 1351.5Q1113 1289 1153.5 1193Q1194 1097 1194 979Q1194 832 1131.5 721Q1069 610 949 558L1221 0H982L731 517H349V0H140ZM714 715Q766 715 805 724Q894 746 937.5 818Q981 890 981 979Q981 1068 937.5 1140Q894 1212 805 1233Q768 1243 714 1243H349V715Z"/>
    <path d="M1461 1440H1670V197H2322V0H1461Z"/>
    <path d="M2512 1460H2721V1257H2512ZM2512 1080H2721V0H2512Z"/>
    <path d="M3305 546L2910 1080H3158L3427 709L3693 1080H3941L3546 546L3951 0H3702L3427 383L3150 0H2901Z"/>
  </g>
</svg>