<svg xmlns="http://www.w3.org/2000/svg" width="700" height="760" viewBox="0 0 700 760" fill="none">
  <g transform="translate(350 391) scale(1.142857) translate(-350 -391)">
    <path d="M212 58H488L525 95V354L488 391H212L175 354V95L212 58Z" fill="#293946"/>

    <rect x="220" y="114" width="258" height="51" rx="2" fill="#75FAA1"/>

    <path d="M220 198H291L342 249H220V198Z" fill="#67ACF9"/>
    <path d="M355 198H478V249H407L355 198Z" fill="#75FAA1"/>

    <rect x="220" y="282" width="259" height="51" rx="2" fill="#67ACF9"/>
  </g>

  <g fill="#293946" transform="matrix(0.158820177 0 0 -0.158820177 25.089 671.801)">
    <path d="M140 1440H722Q782 1440 833 1432Q951 1414 1032 1351.5Q1113 1289 1153.5 1193Q1194 1097 1194 979Q1194 832 1131.5 721Q1069 610 949 558L1221 0H982L731 517H349V0H140ZM714 715Q766 715 805 724Q894 746 937.5 818Q981 890 981 979Q981 1068 937.5 1140Q894 1212 805 1233Q768 1243 714 1243H349V715Z"/>
    <path d="M1461 1440H1670V197H2322V0H1461Z"/>
    <path d="M2512 1460H2721V1257H2512ZM2512 1080H2721V0H2512Z"/>
    <path d="M3305 546L2910 1080H3158L3427 709L3693 1080H3941L3546 546L3951 0H3702L3427 383L3150 0H2901Z"/>
  </g>
</svg>