<svg xmlns="http://www.w3.org/2000/svg" width="1182" height="458" viewBox="0 0 1182 458" fill="none">
  <path fill-rule="evenodd" clip-rule="evenodd"
    d="M123 66H381L416 101V340L381 375H123L88 340V101L123 66Z
       M131 118H373V166H131V118Z
       M131 198H197.6L245.6 246H131V198Z
       M258.4 198H373V246H306.4L258.4 198Z
       M131 279H374V327H131V279Z"
    fill="#000000"/>

  <g fill="#000000" transform="matrix(0.158820177 0 0 -0.158820177 458.688213 340.575798)">
    <path d="M140 1440H722Q782 1440 833 1432Q951 1414 1032 1351.5Q1113 1289 1153.5 1193Q1194 1097 1194 979Q1194 832 1131.5 721Q1069 610 949 558L1221 0H982L731 517H349V0H140ZM714 715Q766 715 805 724Q894 746 937.5 818Q981 890 981 979Q981 1068 937.5 1140Q894 1212 805 1233Q768 1243 714 1243H349V715Z"/>
    <path d="M1461 1440H1670V197H2322V0H1461Z"/>
    <path d="M2512 1460H2721V1257H2512ZM2512 1080H2721V0H2512Z"/>
    <path d="M3305 546L2910 1080H3158L3427 709L3693 1080H3941L3546 546L3951 0H3702L3427 383L3150 0H2901Z"/>
  </g>
</svg>